# xmcd
#
# Track frame offsets: 
#        150
#        16446
#        41667
#        55198
#        70795
#        88177
#        105392
#        126482
#        147337
#
# Disc length: 2204 seconds
#
# Revision: 1
# Processed by: cddbd v1.5.2PL0 Copyright (c) Steve Scherf et al.
# Submitted via: ExactAudioCopyFreeDBPlugin 1.0
#
DISCID=7d089a09
DTITLE=Brainbombs - Urge to Kill
DYEAR=1999
DGENRE=Rock
TTITLE0=Slayer
TTITLE1=Slutmaster
TTITLE2=Salome
TTITLE3=Ass Fucking Murder
TTITLE4=Maybe
TTITLE5=Down in the Gutter
TTITLE6=Stupid and Weak
TTITLE7=Driving Through Leeds
TTITLE8=Filthy Fuck
EXTD=c 1999 Load Records\n\nThe Brainbombs  -  Performer
EXTT0=Brainbombs\n \nFormed  1986 in Sweden
EXTT1=
EXTT2=
EXTT3=
EXTT4=
EXTT5=
EXTT6=
EXTT7=
EXTT8=
PLAYORDER=
